<svg width="32" height="32" viewBox="0 0 32 32" fill="none" xmlns="http://www.w3.org/2000/svg">
<g clip-path="url(#clip0_923_2)">
<rect width="32" height="32" rx="16" fill="#111113"/>
<path d="M9.19669 22.192C8.43935 22.192 7.74069 22.0533 7.10069 21.776C6.47135 21.488 5.95402 21.0827 5.54869 20.56L6.98869 18.832C7.29802 19.2373 7.62335 19.5467 7.96469 19.76C8.30602 19.9627 8.67402 20.064 9.06869 20.064C10.1247 20.064 10.6527 19.4453 10.6527 18.208V12.88H6.71669V10.8H13.2287V18.064C13.2287 19.4507 12.8874 20.4853 12.2047 21.168C11.522 21.8507 10.5194 22.192 9.19669 22.192ZM21.1489 22.192C20.2849 22.192 19.4796 22.0533 18.7329 21.776C17.9969 21.488 17.3569 21.0827 16.8129 20.56C16.2689 20.0373 15.8423 19.424 15.5329 18.72C15.2343 18.016 15.0849 17.2427 15.0849 16.4C15.0849 15.5573 15.2343 14.784 15.5329 14.08C15.8423 13.376 16.2689 12.7627 16.8129 12.24C17.3676 11.7173 18.0129 11.3173 18.7489 11.04C19.4849 10.752 20.2903 10.608 21.1649 10.608C22.1356 10.608 23.0103 10.7787 23.7889 11.12C24.5783 11.4507 25.2396 11.9413 25.7729 12.592L24.1089 14.128C23.7249 13.6907 23.2983 13.3653 22.8289 13.152C22.3596 12.928 21.8476 12.816 21.2929 12.816C20.7703 12.816 20.2903 12.9013 19.8529 13.072C19.4156 13.2427 19.0369 13.488 18.7169 13.808C18.3969 14.128 18.1463 14.5067 17.9649 14.944C17.7943 15.3813 17.7089 15.8667 17.7089 16.4C17.7089 16.9333 17.7943 17.4187 17.9649 17.856C18.1463 18.2933 18.3969 18.672 18.7169 18.992C19.0369 19.312 19.4156 19.5573 19.8529 19.728C20.2903 19.8987 20.7703 19.984 21.2929 19.984C21.8476 19.984 22.3596 19.8773 22.8289 19.664C23.2983 19.44 23.7249 19.104 24.1089 18.656L25.7729 20.192C25.2396 20.8427 24.5783 21.3387 23.7889 21.68C23.0103 22.0213 22.1303 22.192 21.1489 22.192Z" fill="white"/>
</g>
<defs>
<clipPath id="clip0_923_2">
<rect width="32" height="32" rx="16" fill="white"/>
</clipPath>
</defs>
</svg>
